<?xml version="1.0" encoding="utf-8"?>
<!-- Generator: Adobe Illustrator 25.4.1, SVG Export Plug-In . SVG Version: 6.00 Build 0)  -->
<svg version="1.1" id="_x31__px" xmlns="http://www.w3.org/2000/svg" xmlns:xlink="http://www.w3.org/1999/xlink" x="0px" y="0px"
	 viewBox="0 0 298.6 512" style="enable-background:new 0 0 298.6 512;" xml:space="preserve">
<style type="text/css">
	.st0{fill:#FFFFFF;}
</style>
<g>
	<path class="st0" d="M96,512c-1.3,0-2.6-0.2-3.9-0.7c-4.7-1.9-7.5-6.8-6.6-11.8l40.4-222.2H10.6c-4,0-7.7-2.3-9.5-5.9
		s-1.4-7.9,1-11.2l192-255.9c3-4,8.3-5.3,12.8-3.4c4.5,2,7.1,6.8,6.2,11.7l-32.7,179.3H288c3.9,0,7.5,2.1,9.3,5.5
		c1.9,3.4,1.7,7.6-0.4,10.9l-192,298.8C102.9,510.2,99.5,512,96,512z M32,255.9h106.7c3.2,0,6.2,1.4,8.2,3.8s2.9,5.6,2.3,8.7
		l-33,181.8l152.3-237.1H167.6c-3.2,0-6.2-1.4-8.2-3.8s-2.9-5.6-2.3-8.7L184,53.2L32,255.9z"/>
</g>
</svg>
