<?xml version="1.0" encoding="utf-8"?>
<!-- Generator: Adobe Illustrator 25.4.1, SVG Export Plug-In . SVG Version: 6.00 Build 0)  -->
<svg version="1.1" id="Capa_1" xmlns="http://www.w3.org/2000/svg" xmlns:xlink="http://www.w3.org/1999/xlink" x="0px" y="0px"
	 viewBox="0 0 480 480" style="enable-background:new 0 0 480 480;" xml:space="preserve">
<style type="text/css">
	.st0{fill:#FFFFFF;}
</style>
<g>
	<g>
		<path class="st0" d="M16,16C7.2,16,0,23.2,0,32v224c0,8.8,7.2,16,16,16s16-7.2,16-16V32C32,23.2,24.8,16,16,16z"/>
	</g>
</g>
<g>
	<g>
		<path class="st0" d="M80,16c-8.8,0-16,7.2-16,16v160c0,8.8,7.2,16,16,16s16-7.2,16-16V32C96,23.2,88.8,16,80,16z"/>
	</g>
</g>
<g>
	<g>
		<path class="st0" d="M464,16c-8.8,0-16,7.2-16,16v224c0,8.8,7.2,16,16,16s16-7.2,16-16V32C480,23.2,472.8,16,464,16z"/>
	</g>
</g>
<g>
	<g>
		<path class="st0" d="M80.6,240h-0.3c-8.8,0-15.8,7.2-15.8,16s7.3,16,16.2,16s16-7.2,16-16S89.5,240,80.6,240z"/>
	</g>
</g>
<g>
	<g>
		<path class="st0" d="M475.3,436.7L384,345.4c18.5-23.1,30-51.7,31.4-83.1c0.8-1.9,1.3-4,1.3-6.2s-0.4-4.3-1.3-6.2
			c-0.7-15.2-3.7-29.7-8.7-43.3c5.5-2.6,9.3-8,9.3-14.5V32c0-8.8-7.2-16-16-16s-16,7.2-16,16v134.6c-9.2-11.5-19.7-22-32-30.2V32
			c0-8.8-7.2-16-16-16s-16,7.2-16,16v88.8c-10.2-3.6-20.9-6-32-7.2V32c0-8.8-7.2-16-16-16s-16,7.2-16,16v81.6
			c-11.1,1.2-21.8,3.6-32,7.2V32c0-8.8-7.2-16-16-16s-16,7.2-16,16v104.4c-12.3,8.2-22.8,18.7-32,30.2V32c0-8.8-7.2-16-16-16
			s-16,7.2-16,16v160c0,6.4,3.8,11.9,9.3,14.4c-5.8,15.5-9.3,32.1-9.3,49.6c0,79.4,64.6,144,144,144c33.9,0,64.7-12.3,89.4-32
			l91.3,91.3c3.1,3.1,7.2,4.7,11.3,4.7s8.2-1.6,11.3-4.7C481.6,453.1,481.6,442.9,475.3,436.7z M272,368c-61.8,0-112-50.2-112-112
			s50.2-112,112-112s112,50.2,112,112S333.8,368,272,368z"/>
	</g>
</g>
</svg>
