<?xml version="1.0" encoding="utf-8"?>
<!-- Generator: Adobe Illustrator 25.4.1, SVG Export Plug-In . SVG Version: 6.00 Build 0)  -->
<svg version="1.1" id="Layer_1" xmlns="http://www.w3.org/2000/svg" xmlns:xlink="http://www.w3.org/1999/xlink" x="0px" y="0px"
	 viewBox="0 0 452 452" style="enable-background:new 0 0 452 452;" xml:space="preserve">
<style type="text/css">
	.st0{fill:none;}
</style>
<g>
	<path class="st0" d="M187.7,350.8l21.3-21.3l-43.3-43.3L122.4,243l-22.6,22.7C80.2,285.5,77,289.1,76,292.9
		c-1.2,4.7-0.7,9.9,1.5,14.1c0.8,1.4,16.1,17.2,34.2,35.2c29.1,28.9,33.3,32.8,37.2,33.8c1.7,0.4,3.4,0.6,5,0.6
		c3.4,0,6.7-0.9,9.6-2.6C165.2,372.9,176.1,362.5,187.7,350.8z"/>
	<path class="st0" d="M374,163.5c2.6-4.3,3.3-9.5,2-14.6c-1-3.9-4.9-8.1-33.8-37.2c-18-18.1-33.9-33.5-35.4-34.3
		c-2.4-1.3-6-1.9-9.5-1.9c-1.9,0-3.8,0.2-5.3,0.6c-2.6,0.8-9.6,7.2-26.3,23.7L243,122.4l43.2,43.3l43.3,43.3l21.3-21.3
		C362.5,176.1,372.9,165.1,374,163.5z"/>
	<path d="M407.7,142.2c-2.9-11.3-6.3-16.8-18.4-29.2l-11.8-12.1l-3.4-3.5l3.5-3.5L391,80.5c4.9-4.9,8.5-8.7,10.6-11
		c-4.4-4.8-14.2-14.6-19.1-19.1c-2.3,2.1-6.1,5.7-11,10.6l-13.4,13.4l-3.5,3.5l-3.5-3.4L339,62.7c-12.4-12.2-17.8-15.6-28.7-18.3
		c-3-0.8-7.5-1.2-12.2-1.2c-5,0-9.6,0.5-12.9,1.3c-11.6,3-14.7,4.9-40.7,30.8l-24.6,24.3l-3.6,3.5l-3.5-3.6l-7.4-7.5l-3.9-3.9
		l-9.7,9.7l-9.8,9.8l13,13c18,18,18,18.9,18,21c0,2.1,0,3.3-17.8,20.9l-12.8,12.7l9.3,9.2c4.3,4.3,7.8,7.7,10.2,9.9
		c2.6-2.4,7.1-6.6,13.6-13.2l16.5-16.5l3.5-3.5l3.5,3.5l24.2,24.2l24.3,24.3l3.5,3.5l-3.5,3.5l-16.7,16.7l-13.3,13.3l0.5,0.6
		c6,6.2,14.4,14.4,18.9,18.6c2.7-2.5,7-6.8,13-12.8c17.5-17.5,18.2-17.5,20.5-17.5c2.3,0,3.1,0,21,18l13,13l9.7-9.7l9.8-9.8l-4-4
		l-7.5-7.5l-3.5-3.5l3.6-3.5l22.6-22.5c23.4-23.4,27.2-28.1,30.8-37.9l0,0l0,0C409,163.4,409.8,150.6,407.7,142.2z M378.3,166.1
		l-0.1,0.1l-0.1,0.1c-1.6,2.4-13.9,15.1-23.8,24.9L333,212.5l-3.5,3.5l-3.5-3.5l-43.3-43.3l-43.2-43.3l-3.5-3.5l3.5-3.5l22.7-22.6
		c20.4-20.1,25-23.9,28.4-24.9l0,0l0,0c1.9-0.5,4.2-0.8,6.7-0.8c4.5,0,8.9,0.9,11.9,2.5c3.1,1.6,26.6,25.1,36.6,35.2
		c31.1,31.4,33.8,34.3,35.1,39.5C382.5,154.1,381.6,160.6,378.3,166.1z"/>
	<path d="M107.5,182.1l-9.8,9.8l-9.7,9.7l4,4l7.5,7.4l3.6,3.5l-3.5,3.6l-24.3,24.6c-20,20.2-24.2,24.9-26.6,29.7
		C41,290,41,306,48.7,321.8c2.2,4.4,5.6,8.6,14,17.2l11.8,12.1l3.4,3.5l-3.5,3.5L61,371.5c-4.6,4.6-8.1,8.3-10.3,10.6
		c4.6,4.9,14.2,14.6,19,19.2c2.3-2.2,5.9-5.7,10.6-10.4l13.4-13.4l3.5-3.5l3.5,3.4l12.1,11.8c12.4,12.1,17.9,15.6,29.2,18.4
		c3.2,0.8,6.8,1.2,10.6,1.2c10.7,0,22.1-3.3,29.7-8.5c2.1-1.4,12.9-11.6,26.9-25.5l22.5-22.5l3.5-3.5l3.5,3.5l7.5,7.5l4,4l9.8-9.8
		l9.7-9.7l-81.3-81.3L107.5,182.1z M216.1,329.5l-3.5,3.5l-21.3,21.3c-8.2,8.3-22.3,22.1-25,23.9l-0.1,0l-0.1,0
		c-3.6,2.2-7.8,3.4-12.2,3.4c-2.1,0-4.2-0.3-6.2-0.8c-5.2-1.3-8.1-4-39.5-35.1c-1.4-1.3-33.1-33-35-36.3l0-0.1l0-0.1
		c-2.7-5.2-3.4-11.7-1.9-17.7c1.4-5.3,4.7-8.9,25.1-29.5l22.6-22.7l3.5-3.5l3.5,3.5l43.3,43.2l43.3,43.3L216.1,329.5z"/>
</g>
</svg>
