<svg id="Layer_1" data-name="Layer 1" xmlns="http://www.w3.org/2000/svg" viewBox="0 0 502.76 460.17"><defs><style>.cls-1,.cls-2{fill:#fff000;}.cls-1{stroke:#fff000;stroke-miterlimit:10;stroke-width:20px;}</style></defs><path class="cls-1" d="M323,439.49c0-13.19,10.87-24.83,24.45-24.83s24.44,11.64,24.44,24.83a24.45,24.45,0,0,1-48.89,0Zm45.79-235.92c0,14.35-4.27,51.21-9.31,105.53l-4.4,47a7.66,7.66,0,0,1-7.63,6.95h0a7.67,7.67,0,0,1-7.64-6.95l-4.39-47c-5-54.32-9.31-91.18-9.31-105.53,0-16.69,8.15-23.67,21.34-23.67S368.79,186.88,368.79,203.57Z" transform="translate(-96.07 -82.83)"/><path class="cls-2" d="M347.45,132.83a42.46,42.46,0,0,1,37.12,21.43L543,428.7c16.5,28.58-4.13,64.3-37.13,64.3H189c-33,0-53.62-35.72-37.12-64.3L310.32,154.26a42.47,42.47,0,0,1,37.13-21.43m0-50A92.51,92.51,0,0,0,267,129.26L108.57,403.7A92.78,92.78,0,0,0,189,543H505.89a92.79,92.79,0,0,0,80.43-139.3L427.87,129.26a92.48,92.48,0,0,0-80.42-46.43Z" transform="translate(-96.07 -82.83)"/></svg>