<?xml version="1.0" standalone="no"?>
<!DOCTYPE svg PUBLIC "-//W3C//DTD SVG 20010904//EN"
 "http://www.w3.org/TR/2001/REC-SVG-20010904/DTD/svg10.dtd">
<svg version="1.0" xmlns="http://www.w3.org/2000/svg"
 width="120.000000pt" height="120.000000pt" viewBox="0 0 120.000000 120.000000"
 preserveAspectRatio="xMidYMid meet">
<metadata>
Created by potrace 1.16, written by Peter Selinger 2001-2019
</metadata>
<g transform="translate(0.000000,120.000000) scale(0.100000,-0.100000)"
fill="#000000" stroke="none">
<path d="M483 1065 c-29 -8 -71 -24 -94 -35 -34 -18 -40 -25 -37 -48 4 -37 36
-40 101 -11 42 19 70 23 147 24 86 0 101 -3 162 -32 90 -42 150 -100 193 -186
19 -38 35 -76 35 -83 0 -8 12 -17 27 -20 31 -8 56 18 47 50 -19 66 -70 153
-119 205 -120 126 -302 179 -462 136z"/>
<path d="M160 480 c-19 -19 -19 -22 -5 -58 61 -144 180 -248 332 -287 113 -29
232 -13 345 47 61 33 82 56 72 82 -11 30 -38 26 -122 -16 -82 -42 -87 -43
-181 -43 -87 0 -102 3 -163 32 -88 41 -148 98 -192 182 -40 77 -58 89 -86 61z"/>
</g>
</svg>
