<?xml version="1.0" standalone="no"?>
<!DOCTYPE svg PUBLIC "-//W3C//DTD SVG 20010904//EN"
 "http://www.w3.org/TR/2001/REC-SVG-20010904/DTD/svg10.dtd">
<svg version="1.0" xmlns="http://www.w3.org/2000/svg"
 width="120.000000pt" height="120.000000pt" viewBox="0 0 120.000000 120.000000"
 preserveAspectRatio="xMidYMid meet">
<metadata>
Created by potrace 1.16, written by Peter Selinger 2001-2019
</metadata>
<g transform="translate(0.000000,120.000000) scale(0.100000,-0.100000)"
fill="#000000" stroke="none">
<path d="M247 921 c-177 -189 -166 -485 24 -666 47 -45 65 -56 86 -53 21 2 29
9 31 27 3 18 -9 35 -52 73 -40 35 -66 71 -93 126 -36 72 -38 81 -38 171 0 87
3 102 32 163 17 37 50 87 72 111 45 49 48 58 25 81 -24 25 -38 20 -87 -33z"/>
<path d="M867 953 c-16 -15 -5 -48 29 -86 20 -22 50 -69 68 -106 28 -60 31
-75 31 -161 0 -82 -4 -103 -27 -153 -15 -32 -37 -71 -48 -87 -24 -34 -20 -66
11 -75 27 -9 50 13 88 84 78 147 80 305 5 452 -48 95 -128 162 -157 132z"/>
</g>
</svg>
