<?xml version="1.0" standalone="no"?>
<!DOCTYPE svg PUBLIC "-//W3C//DTD SVG 20010904//EN"
 "http://www.w3.org/TR/2001/REC-SVG-20010904/DTD/svg10.dtd">
<svg version="1.0" xmlns="http://www.w3.org/2000/svg"
 width="120.000000pt" height="120.000000pt" viewBox="0 0 120.000000 120.000000"
 preserveAspectRatio="xMidYMid meet">
<metadata>
Created by potrace 1.16, written by Peter Selinger 2001-2019
</metadata>
<g transform="translate(0.000000,120.000000) scale(0.100000,-0.100000)"
fill="#000000" stroke="none">
<path d="M538 1055 c-18 -39 2 -51 89 -58 149 -11 271 -96 336 -235 29 -60 32
-77 33 -165 0 -103 7 -121 45 -115 28 4 37 30 38 113 4 258 -219 485 -476 485
-47 0 -55 -3 -65 -25z"/>
<path d="M132 678 c-17 -17 -15 -121 3 -193 67 -257 329 -415 580 -350 70 19
85 29 85 62 0 34 -20 37 -97 18 -188 -47 -374 38 -459 210 -30 62 -37 87 -42
166 -7 91 -8 94 -32 97 -14 2 -31 -3 -38 -10z"/>
</g>
</svg>
