<?xml version="1.0" standalone="no"?>
<!DOCTYPE svg PUBLIC "-//W3C//DTD SVG 20010904//EN"
 "http://www.w3.org/TR/2001/REC-SVG-20010904/DTD/svg10.dtd">
<svg version="1.0" xmlns="http://www.w3.org/2000/svg"
 width="120.000000pt" height="120.000000pt" viewBox="0 0 120.000000 120.000000"
 preserveAspectRatio="xMidYMid meet">
<metadata>
Created by potrace 1.16, written by Peter Selinger 2001-2019
</metadata>
<g transform="translate(0.000000,120.000000) scale(0.100000,-0.100000)"
fill="#000000" stroke="none">
<path d="M481 1064 c-69 -18 -161 -67 -197 -105 -23 -24 -26 -33 -18 -47 17
-26 50 -26 87 2 18 14 60 38 92 53 52 24 72 28 156 28 90 0 99 -2 171 -37 127
-63 210 -180 224 -316 l7 -62 -57 0 c-31 0 -56 -3 -56 -6 0 -3 34 -43 74 -89
l75 -84 75 83 c42 46 76 86 76 90 0 3 -25 6 -55 6 l-55 0 0 38 c0 21 -7 64
-15 95 -67 259 -333 419 -584 351z"/>
<path d="M92 727 l-80 -92 54 -3 54 -3 0 -42 c0 -208 174 -413 387 -458 117
-24 258 5 360 74 58 40 72 61 57 85 -17 26 -40 26 -77 -2 -18 -14 -60 -38 -92
-53 -52 -24 -72 -28 -155 -28 -86 0 -101 3 -162 32 -37 17 -87 50 -112 74 -63
57 -114 163 -123 251 l-6 67 66 3 65 3 -78 92 -79 92 -79 -92z"/>
</g>
</svg>
