<?xml version="1.0" standalone="no"?>
<!DOCTYPE svg PUBLIC "-//W3C//DTD SVG 20010904//EN"
 "http://www.w3.org/TR/2001/REC-SVG-20010904/DTD/svg10.dtd">
<svg version="1.0" xmlns="http://www.w3.org/2000/svg"
 width="120.000000pt" height="120.000000pt" viewBox="0 0 120.000000 120.000000"
 preserveAspectRatio="xMidYMid meet">
<metadata>
Created by potrace 1.16, written by Peter Selinger 2001-2019
</metadata>
<g transform="translate(0.000000,120.000000) scale(0.100000,-0.100000)"
fill="#000000" stroke="none">
<path d="M483 1065 c-65 -18 -140 -55 -182 -91 -24 -20 -31 -34 -29 -53 4 -36
39 -39 81 -7 18 14 60 38 92 53 52 24 72 28 156 28 90 0 99 -2 171 -37 127
-63 210 -180 224 -316 l7 -62 -57 0 c-31 0 -56 -3 -56 -6 0 -3 34 -43 74 -89
l75 -84 75 83 c42 46 76 86 76 90 0 3 -25 6 -55 6 l-55 0 0 38 c0 21 -7 64
-15 95 -67 259 -333 419 -582 352z"/>
<path d="M95 754 c-38 -47 -71 -89 -73 -94 -2 -6 19 -10 47 -10 l51 0 0 -53
c0 -219 169 -422 387 -468 115 -23 250 4 357 71 40 26 47 35 44 58 -5 41 -30
39 -125 -10 -83 -42 -88 -43 -182 -43 -87 0 -102 3 -163 32 -139 65 -224 187
-235 336 l-6 76 66 3 67 3 -78 92 c-42 50 -79 92 -82 92 -3 0 -36 -38 -75 -85z"/>
</g>
</svg>
