<?xml version="1.0" standalone="no"?>
<!DOCTYPE svg PUBLIC "-//W3C//DTD SVG 20010904//EN"
 "http://www.w3.org/TR/2001/REC-SVG-20010904/DTD/svg10.dtd">
<svg version="1.0" xmlns="http://www.w3.org/2000/svg"
 width="120.000000pt" height="120.000000pt" viewBox="0 0 120.000000 120.000000"
 preserveAspectRatio="xMidYMid meet">
<metadata>
Created by potrace 1.16, written by Peter Selinger 2001-2019
</metadata>
<g transform="translate(0.000000,120.000000) scale(0.100000,-0.100000)"
fill="#000000" stroke="none">
<path d="M481 1065 c-173 -49 -302 -182 -347 -356 -17 -66 -13 -103 12 -113
30 -12 52 12 59 63 9 67 55 160 106 215 52 57 159 112 236 122 35 4 89 2 136
-6 84 -14 96 -9 97 33 0 45 -192 72 -299 42z"/>
<path d="M1017 599 c-9 -5 -18 -30 -22 -60 -10 -71 -66 -179 -121 -229 -25
-23 -75 -56 -112 -73 -62 -29 -75 -32 -171 -32 -88 0 -106 -3 -115 -18 -14
-22 2 -49 35 -58 44 -12 144 -9 204 6 174 46 306 179 351 356 9 34 13 71 10
84 -6 25 -35 37 -59 24z"/>
</g>
</svg>
