<?xml version="1.0" standalone="no"?>
<!DOCTYPE svg PUBLIC "-//W3C//DTD SVG 20010904//EN"
 "http://www.w3.org/TR/2001/REC-SVG-20010904/DTD/svg10.dtd">
<svg version="1.0" xmlns="http://www.w3.org/2000/svg"
 width="120.000000pt" height="120.000000pt" viewBox="0 0 120.000000 120.000000"
 preserveAspectRatio="xMidYMid meet">
<metadata>
Created by potrace 1.16, written by Peter Selinger 2001-2019
</metadata>
<g transform="translate(0.000000,120.000000) scale(0.100000,-0.100000)"
fill="#000000" stroke="none">
<path d="M483 1065 c-74 -20 -148 -60 -199 -107 -45 -41 -53 -65 -32 -86 20
-20 38 -14 81 24 22 20 69 50 106 68 60 28 75 31 162 31 90 0 99 -2 171 -37
47 -24 91 -55 117 -84 44 -47 95 -145 105 -201 l6 -33 -60 0 -60 0 76 -115
c43 -63 80 -115 84 -115 4 0 41 52 84 115 l76 115 -59 0 -60 0 -11 55 c-55
264 -332 438 -587 370z"/>
<path d="M91 721 l-81 -121 53 0 53 0 10 -69 c44 -278 321 -465 587 -396 72
19 146 56 192 96 36 32 44 56 23 77 -19 19 -36 15 -76 -18 -20 -16 -64 -42
-97 -57 -52 -24 -72 -28 -155 -28 -86 0 -101 3 -162 32 -37 17 -87 50 -112 74
-56 50 -113 162 -122 236 l-6 52 66 3 66 3 -79 119 -79 118 -81 -121z"/>
</g>
</svg>
