<?xml version="1.0" standalone="no"?>
<!DOCTYPE svg PUBLIC "-//W3C//DTD SVG 20010904//EN"
 "http://www.w3.org/TR/2001/REC-SVG-20010904/DTD/svg10.dtd">
<svg version="1.0" xmlns="http://www.w3.org/2000/svg"
 width="120.000000pt" height="120.000000pt" viewBox="0 0 120.000000 120.000000"
 preserveAspectRatio="xMidYMid meet">
<metadata>
Created by potrace 1.16, written by Peter Selinger 2001-2019
</metadata>
<g transform="translate(0.000000,120.000000) scale(0.100000,-0.100000)"
fill="#000000" stroke="none">
<path d="M481 1064 c-116 -31 -173 -86 -121 -114 18 -10 32 -7 84 16 53 25 73
29 157 29 90 0 99 -2 171 -37 138 -69 216 -187 226 -343 5 -95 11 -88 -71 -87
-21 1 -37 -3 -35 -7 2 -5 36 -34 76 -66 l72 -56 73 56 c39 32 73 61 75 65 2 5
-22 7 -52 6 l-56 -1 0 65 c0 317 -300 555 -599 474z"/>
<path d="M95 778 c-38 -33 -71 -65 -73 -69 -2 -5 21 -9 51 -9 l54 0 -5 -68
c-20 -284 224 -529 508 -509 86 6 185 39 200 68 8 14 6 23 -10 39 l-20 20 -52
-22 c-41 -17 -74 -22 -148 -22 -87 -1 -101 2 -162 31 -91 43 -151 101 -193
187 -38 77 -52 156 -41 230 l7 45 60 3 60 3 -76 65 c-42 36 -80 66 -83 67 -4
1 -38 -25 -77 -59z"/>
</g>
</svg>
