<?xml version="1.0" standalone="no"?>
<!DOCTYPE svg PUBLIC "-//W3C//DTD SVG 20010904//EN"
 "http://www.w3.org/TR/2001/REC-SVG-20010904/DTD/svg10.dtd">
<svg version="1.0" xmlns="http://www.w3.org/2000/svg"
 width="120.000000pt" height="120.000000pt" viewBox="0 0 120.000000 120.000000"
 preserveAspectRatio="xMidYMid meet">
<metadata>
Created by potrace 1.16, written by Peter Selinger 2001-2019
</metadata>
<g transform="translate(0.000000,120.000000) scale(0.100000,-0.100000)"
fill="#000000" stroke="none">
<path d="M497 1069 c-62 -15 -79 -27 -75 -57 3 -25 6 -27 43 -24 22 1 83 3
136 5 92 2 98 1 171 -35 91 -45 147 -103 191 -196 29 -60 32 -77 33 -165 0
-103 7 -121 45 -115 28 4 37 30 38 113 4 216 -150 414 -364 470 -64 16 -158
18 -218 4z"/>
<path d="M132 678 c-17 -17 -15 -121 3 -193 77 -295 409 -451 674 -315 48 24
58 47 32 73 -20 20 -20 20 -83 -9 -55 -25 -75 -29 -158 -29 -86 0 -101 3 -162
32 -92 43 -151 101 -194 188 -30 62 -37 87 -42 166 -7 91 -8 94 -32 97 -14 2
-31 -3 -38 -10z"/>
</g>
</svg>
