<?xml version="1.0" standalone="no"?>
<!DOCTYPE svg PUBLIC "-//W3C//DTD SVG 20010904//EN"
 "http://www.w3.org/TR/2001/REC-SVG-20010904/DTD/svg10.dtd">
<svg version="1.0" xmlns="http://www.w3.org/2000/svg"
 width="120.000000pt" height="120.000000pt" viewBox="0 0 120.000000 120.000000"
 preserveAspectRatio="xMidYMid meet">
<metadata>
Created by potrace 1.16, written by Peter Selinger 2001-2019
</metadata>
<g transform="translate(0.000000,120.000000) scale(0.100000,-0.100000)"
fill="#000000" stroke="none">
<path d="M497 1069 c-54 -13 -77 -27 -77 -48 0 -37 24 -44 96 -31 177 34 352
-47 433 -199 17 -33 36 -86 43 -118 12 -65 23 -83 48 -83 35 0 44 26 32 92
-49 265 -320 447 -575 387z"/>
<path d="M141 561 c-17 -17 -18 -25 -10 -63 57 -258 330 -429 582 -363 90 23
137 51 137 80 0 41 -28 46 -95 17 -50 -22 -75 -26 -155 -27 -86 0 -101 3 -162
32 -37 17 -87 50 -112 73 -46 43 -116 164 -116 202 0 50 -40 78 -69 49z"/>
</g>
</svg>
