<?xml version="1.0" standalone="no"?>
<!DOCTYPE svg PUBLIC "-//W3C//DTD SVG 20010904//EN"
 "http://www.w3.org/TR/2001/REC-SVG-20010904/DTD/svg10.dtd">
<svg version="1.0" xmlns="http://www.w3.org/2000/svg"
 width="120.000000pt" height="120.000000pt" viewBox="0 0 120.000000 120.000000"
 preserveAspectRatio="xMidYMid meet">
<metadata>
Created by potrace 1.16, written by Peter Selinger 2001-2019
</metadata>
<g transform="translate(0.000000,120.000000) scale(0.100000,-0.100000)"
fill="#000000" stroke="none">
<path d="M501 1070 c-46 -11 -68 -48 -38 -67 6 -4 62 -8 122 -8 108 0 113 -1
187 -37 90 -45 148 -103 189 -193 34 -73 47 -174 30 -245 -8 -37 -7 -48 6 -62
39 -43 72 -1 80 104 18 233 -134 443 -364 503 -61 16 -156 18 -212 5z"/>
<path d="M166 801 c-9 -16 -23 -56 -31 -88 -65 -249 94 -511 352 -578 59 -15
150 -19 191 -9 24 7 41 49 25 65 -6 6 -53 11 -104 13 -82 1 -103 6 -161 33
-92 43 -151 100 -196 191 -34 71 -37 82 -37 166 0 66 5 106 20 144 21 58 15
84 -23 90 -15 2 -25 -6 -36 -27z"/>
</g>
</svg>
