<?xml version="1.0" standalone="no"?>
<!DOCTYPE svg PUBLIC "-//W3C//DTD SVG 20010904//EN"
 "http://www.w3.org/TR/2001/REC-SVG-20010904/DTD/svg10.dtd">
<svg version="1.0" xmlns="http://www.w3.org/2000/svg"
 width="120.000000pt" height="120.000000pt" viewBox="0 0 120.000000 120.000000"
 preserveAspectRatio="xMidYMid meet">
<metadata>
Created by potrace 1.16, written by Peter Selinger 2001-2019
</metadata>
<g transform="translate(0.000000,120.000000) scale(0.100000,-0.100000)"
fill="#000000" stroke="none">
<path d="M481 1064 c-84 -22 -165 -71 -226 -134 -55 -58 -66 -85 -43 -108 21
-21 37 -13 90 43 35 38 75 67 127 93 71 35 80 37 170 37 87 0 102 -3 163 -32
37 -17 87 -50 112 -73 52 -48 89 -52 94 -9 2 19 -8 36 -46 71 -116 109 -290
153 -441 112z"/>
<path d="M931 376 c-33 -52 -97 -105 -170 -140 -60 -28 -75 -31 -161 -31 -107
1 -167 21 -248 83 -81 62 -133 10 -57 -57 177 -155 458 -144 635 25 72 68 99
116 81 138 -23 27 -57 19 -80 -18z"/>
</g>
</svg>
