<?xml version="1.0" standalone="no"?>
<!DOCTYPE svg PUBLIC "-//W3C//DTD SVG 20010904//EN"
 "http://www.w3.org/TR/2001/REC-SVG-20010904/DTD/svg10.dtd">
<svg version="1.0" xmlns="http://www.w3.org/2000/svg"
 width="120.000000pt" height="120.000000pt" viewBox="0 0 120.000000 120.000000"
 preserveAspectRatio="xMidYMid meet">
<metadata>
Created by potrace 1.16, written by Peter Selinger 2001-2019
</metadata>
<g transform="translate(0.000000,120.000000) scale(0.100000,-0.100000)"
fill="#000000" stroke="none">
<path d="M339 1002 c-130 -84 -219 -247 -219 -402 0 -151 110 -362 171 -330
26 14 24 45 -6 84 -13 17 -37 59 -52 91 -24 52 -28 72 -28 155 0 86 3 101 31
161 37 78 90 140 151 176 34 20 43 30 43 53 0 25 -15 40 -39 40 -4 0 -27 -13
-52 -28z"/>
<path d="M938 889 c-26 -14 -23 -32 20 -117 35 -72 37 -81 37 -172 0 -91 -2
-100 -37 -171 -24 -48 -55 -92 -87 -123 -53 -49 -59 -64 -39 -84 25 -25 55
-12 110 46 146 153 178 364 83 551 -24 48 -50 81 -63 81 -4 0 -15 -5 -24 -11z"/>
</g>
</svg>
